{
  "accessors": [
    {
      "bufferView": 2,
      "componentType": 5126,
      "count": 25,
      "max": [
        250.0,
        250.0,
        0.0
      ],
      "min": [
        -250.0,
        -250.0,
        0.0
      ],
      "type": "VEC3"
    },
    {
      "bufferView": 2,
      "byteOffset": 300,
      "componentType": 5126,
      "count": 25,
      "max": [
        0.0,
        0.0,
        1.0
      ],
      "min": [
        0.0,
        0.0,
        1.0
      ],
      "type": "VEC3"
    },
    {
      "bufferView": 1,
      "componentType": 5126,
      "count": 25,
      "max": [
        1.0,
        1.0
      ],
      "min": [
        0.0,
        0.0
      ],
      "type": "VEC2"
    },
    {
      "bufferView": 0,
      "componentType": 5125,
      "count": 96,
      "type": "SCALAR"
    },
    {
      "bufferView": 2,
      "byteOffset": 600,
      "componentType": 5126,
      "count": 8425,
      "max": [
        42.28699493408203,
        6.500006198883057,
        73.78993225097656
      ],
      "min": [
        -35.324928283691406,
        -6.500006675720215,
        -7.62939453125e-06
      ],
      "type": "VEC3"
    },
    {
      "bufferView": 2,
      "byteOffset": 101700,
      "componentType": 5126,
      "count": 8425,
      "max": [
        1.0,
        1.0,
        1.0
      ],
      "min": [
        -1.0,
        -1.0,
        -1.0
      ],
      "type": "VEC3"
    },
    {
      "bufferView": 1,
      "byteOffset": 200,
      "componentType": 5126,
      "count": 8425,
      "max": [
        2.203723192214966,
        4.238912105560303
      ],
      "min": [
        -2.2759439945220947,
        -0.5043983459472656
      ],
      "type": "VEC2"
    },
    {
      "bufferView": 1,
      "byteOffset": 67600,
      "componentType": 5126,
      "count": 8425,
      "max": [
        0.943575918674469,
        0.9991085529327393
      ],
      "min": [
        0.0,
        0.0
      ],
      "type": "VEC2"
    },
    {
      "bufferView": 0,
      "byteOffset": 384,
      "componentType": 5125,
      "count": 19974,
      "type": "SCALAR"
    },
    {
      "bufferView": 2,
      "byteOffset": 202800,
      "componentType": 5126,
      "count": 5120,
      "max": [
        32.06447982788086,
        -0.8045545816421509,
        62.95443344116211
      ],
      "min": [
        -24.588563919067383,
        -4.771785736083984,
        9.050727844238281
      ],
      "type": "VEC3"
    },
    {
      "bufferView": 2,
      "byteOffset": 264240,
      "componentType": 5126,
      "count": 5120,
      "max": [
        0.9966040849685669,
        0.9997708201408386,
        0.9720045328140259
      ],
      "min": [
        -0.9908539056777954,
        -0.9755051732063293,
        -0.9988255500793457
      ],
      "type": "VEC3"
    },
    {
      "bufferView": 1,
      "byteOffset": 135000,
      "componentType": 5126,
      "count": 5120,
      "max": [
        0.582377552986145,
        0.3933923840522766
      ],
      "min": [
        0.19082239270210266,
        0.004770559724420309
      ],
      "type": "VEC2"
    },
    {
      "bufferView": 1,
      "byteOffset": 175960,
      "componentType": 5126,
      "count": 5120,
      "max": [
        0.4889185428619385,
        1.3632487058639526
      ],
      "min": [
        -1.3700064420700073,
        -0.48174992203712463
      ],
      "type": "VEC2"
    },
    {
      "bufferView": 0,
      "byteOffset": 80280,
      "componentType": 5125,
      "count": 14496,
      "type": "SCALAR"
    },
    {
      "bufferView": 2,
      "byteOffset": 325680,
      "componentType": 5126,
      "count": 8960,
      "max": [
        32.58330535888672,
        -2.43906569480896,
        63.531803131103516
      ],
      "min": [
        -25.074344635009766,
        -5.1690216064453125,
        8.625492095947266
      ],
      "type": "VEC3"
    },
    {
      "bufferView": 2,
      "byteOffset": 433200,
      "componentType": 5126,
      "count": 8960,
      "max": [
        1.0,
        0.2958969473838806,
        1.0
      ],
      "min": [
        -1.0,
        -1.0,
        -1.0
      ],
      "type": "VEC3"
    },
    {
      "bufferView": 1,
      "byteOffset": 216920,
      "componentType": 5126,
      "count": 8960,
      "max": [
        1.0034558773040771,
        0.1314059942960739
      ],
      "min": [
        0.7776012420654297,
        0.023852795362472534
      ],
      "type": "VEC2"
    },
    {
      "bufferView": 1,
      "byteOffset": 288600,
      "componentType": 5126,
      "count": 8960,
      "max": [
        2.4880058765411377,
        0.11945722997188568
      ],
      "min": [
        1.4157512187957764,
        -0.3911561369895935
      ],
      "type": "VEC2"
    },
    {
      "bufferView": 0,
      "byteOffset": 138264,
      "componentType": 5125,
      "count": 47616,
      "type": "SCALAR"
    }
  ],
  "asset": {
    "extras": {
      "author": "MADE.COM (https://sketchfab.com/made-it)",
      "license": "CC-BY-NC-4.0 (http://creativecommons.org/licenses/by-nc/4.0/)",
      "source": "https://sketchfab.com/3d-models/broadway-star-floor-lamp-black-b02f61c83cbf4c37861943d2eda25c8a",
      "title": "Broadway Star Floor Lamp, Black"
    },
    "generator": "Sketchfab-12.68.0",
    "version": "2.0"
  },
  "bufferViews": [
    {
      "buffer": 0,
      "byteLength": 328728,
      "name": "floatBufferViews",
      "target": 34963
    },
    {
      "buffer": 0,
      "byteLength": 360280,
      "byteOffset": 328728,
      "byteStride": 8,
      "name": "floatBufferViews",
      "target": 34962
    },
    {
      "buffer": 0,
      "byteLength": 540720,
      "byteOffset": 689008,
      "byteStride": 12,
      "name": "floatBufferViews",
      "target": 34962
    }
  ],
  "buffers": [
    {
      "byteLength": 1229728,
      "uri": "scene.bin"
    }
  ],
  "extensionsUsed": [
    "KHR_materials_transmission"
  ],
  "images": [
    {
      "uri": "textures/FLOOR_baseColor.png"
    },
    {
      "uri": "textures/METAL_baseColor.jpeg"
    },
    {
      "uri": "textures/METAL_metallicRoughness.png"
    },
    {
      "uri": "textures/METAL_emissive.jpeg"
    },
    {
      "uri": "textures/GLASS_metallicRoughness.png"
    }
  ],
  "materials": [
    {
      "alphaMode": "BLEND",
      "doubleSided": true,
      "name": "FLOOR",
      "pbrMetallicRoughness": {
        "baseColorFactor": [
          0.0,
          0.0,
          0.0,
          1.0
        ],
        "baseColorTexture": {
          "index": 0
        },
        "metallicFactor": 0.05
      }
    },
    {
      "doubleSided": true,
      "emissiveFactor": [
        1.0,
        1.0,
        1.0
      ],
      "emissiveTexture": {
        "index": 3,
        "texCoord": 1
      },
      "name": "METAL",
      "occlusionTexture": {
        "index": 2,
        "texCoord": 1
      },
      "pbrMetallicRoughness": {
        "baseColorTexture": {
          "index": 1
        },
        "metallicRoughnessTexture": {
          "index": 2
        }
      }
    },
    {
      "doubleSided": true,
      "emissiveFactor": [
        1.0,
        0.2935938901170492,
        0.0
      ],
      "name": "LIGHT",
      "pbrMetallicRoughness": {
        "baseColorFactor": [
          1.0,
          0.564706,
          0.0,
          1.0
        ],
        "metallicFactor": 0.05
      }
    },
    {
      "alphaMode": "BLEND",
      "doubleSided": true,
      "extensions": {
        "KHR_materials_transmission": {
          "transmissionFactor": 1.0
        }
      },
      "name": "GLASS",
      "occlusionTexture": {
        "index": 4
      },
      "pbrMetallicRoughness": {
        "baseColorFactor": [
          0.0980392,
          0.0980392,
          0.0980392,
          0.25
        ],
        "metallicFactor": 0.05,
        "metallicRoughnessTexture": {
          "index": 4
        },
        "roughnessFactor": 0.0
      }
    }
  ],
  "meshes": [
    {
      "name": "Plane001_FLOOR_0",
      "primitives": [
        {
          "attributes": {
            "NORMAL": 1,
            "POSITION": 0,
            "TEXCOORD_0": 2
          },
          "indices": 3,
          "material": 0,
          "mode": 4
        }
      ]
    },
    {
      "name": "Broadway_Star_Floor_Lamp_METAL_0",
      "primitives": [
        {
          "attributes": {
            "NORMAL": 5,
            "POSITION": 4,
            "TEXCOORD_0": 6,
            "TEXCOORD_1": 7
          },
          "indices": 8,
          "material": 1,
          "mode": 4
        }
      ]
    },
    {
      "name": "Broadway_Star_Floor_Lamp_LIGHT_0",
      "primitives": [
        {
          "attributes": {
            "NORMAL": 10,
            "POSITION": 9,
            "TEXCOORD_0": 11,
            "TEXCOORD_1": 12
          },
          "indices": 13,
          "material": 2,
          "mode": 4
        }
      ]
    },
    {
      "name": "Broadway_Star_Floor_Lamp_GLASS_0",
      "primitives": [
        {
          "attributes": {
            "NORMAL": 15,
            "POSITION": 14,
            "TEXCOORD_0": 16,
            "TEXCOORD_1": 17
          },
          "indices": 18,
          "material": 3,
          "mode": 4
        }
      ]
    }
  ],
  "nodes": [
    {
      "children": [
        1
      ],
      "matrix": [
        1.0,
        0.0,
        0.0,
        0.0,
        0.0,
        2.220446049250313e-16,
        -1.0,
        0.0,
        0.0,
        1.0,
        2.220446049250313e-16,
        0.0,
        0.0,
        0.0,
        0.0,
        1.0
      ],
      "name": "Sketchfab_model"
    },
    {
      "children": [
        2
      ],
      "matrix": [
        1.0,
        0.0,
        0.0,
        0.0,
        0.0,
        0.0,
        1.0,
        0.0,
        0.0,
        -1.0,
        0.0,
        0.0,
        0.0,
        0.0,
        0.0,
        1.0
      ],
      "name": "424d82eaf5e546ca8571ca500eae7466.fbx"
    },
    {
      "children": [
        3,
        5
      ],
      "name": "RootNode"
    },
    {
      "children": [
        4
      ],
      "matrix": [
        0.6681156158447266,
        0.0,
        0.0,
        0.0,
        0.0,
        1.483514679644863e-16,
        -0.6681156158447266,
        0.0,
        0.0,
        1.0,
        2.220446049250313e-16,
        0.0,
        0.0,
        0.0,
        0.0,
        1.0
      ],
      "name": "Plane001"
    },
    {
      "mesh": 0,
      "name": "Plane001_FLOOR_0"
    },
    {
      "children": [
        6
      ],
      "matrix": [
        1.0,
        0.0,
        0.0,
        0.0,
        0.0,
        2.220446049250313e-16,
        -1.0,
        0.0,
        0.0,
        1.0,
        2.220446049250313e-16,
        0.0,
        0.0,
        0.0,
        0.0,
        1.0
      ],
      "name": "Broadway_Star_Floor_Lamp"
    },
    {
      "children": [
        7,
        8,
        9
      ],
      "matrix": [
        1.0,
        0.0,
        -0.0,
        0.0,
        0.0,
        1.0,
        0.0,
        0.0,
        0.0,
        0.0,
        1.0,
        0.0,
        -3.4810352325439453,
        -1.6090632470877608e-06,
        -0.08388519287109375,
        1.0
      ],
      "name": "Object_6"
    },
    {
      "mesh": 1,
      "name": "Broadway_Star_Floor_Lamp_METAL_0"
    },
    {
      "mesh": 2,
      "name": "Broadway_Star_Floor_Lamp_LIGHT_0"
    },
    {
      "mesh": 3,
      "name": "Broadway_Star_Floor_Lamp_GLASS_0"
    }
  ],
  "samplers": [
    {
      "magFilter": 9729,
      "minFilter": 9987,
      "wrapS": 10497,
      "wrapT": 10497
    }
  ],
  "scene": 0,
  "scenes": [
    {
      "name": "Sketchfab_Scene",
      "nodes": [
        0
      ]
    }
  ],
  "textures": [
    {
      "sampler": 0,
      "source": 0
    },
    {
      "sampler": 0,
      "source": 1
    },
    {
      "sampler": 0,
      "source": 2
    },
    {
      "sampler": 0,
      "source": 3
    },
    {
      "sampler": 0,
      "source": 4
    }
  ]
}
